<svg width="24" height="24" viewBox="0 0 24 24" fill="none" xmlns="http://www.w3.org/2000/svg">
<g clip-path="url(#clip0_11_954)">
<path d="M20.5657 13.1038C20.3719 12.3785 19.396 11.9765 19.0286 11.3415C18.6559 10.6972 18.7919 9.65263 18.269 9.12978C17.7462 8.60693 16.7016 8.74294 16.0573 8.3702C15.4222 8.00276 15.0204 7.02694 14.295 6.8331C13.581 6.64225 12.7004 7.28462 11.9999 7.28462C11.2996 7.28462 10.4189 6.64225 9.70494 6.8331C8.97958 7.02699 8.57764 8.00281 7.94255 8.37025C7.29831 8.74299 6.25373 8.60698 5.73088 9.12983C5.20803 9.65268 5.34404 10.6973 4.9713 11.3415C4.60386 11.9766 3.62804 12.3785 3.43419 13.1038C3.24682 13.8049 3.88571 14.6388 3.88571 15.3989C3.88571 16.159 3.24682 16.9929 3.43419 17.6939C3.62808 18.4193 4.60391 18.8212 4.97135 19.4563C5.34408 20.1005 5.20807 21.1451 5.73092 21.668C6.25378 22.1908 7.29836 22.0548 7.94259 22.4275C8.57769 22.795 8.97958 23.7708 9.70494 23.9646C10.4189 24.1555 11.2996 23.5131 11.9999 23.5131C12.7003 23.5131 13.581 24.1555 14.2949 23.9646C15.0203 23.7708 15.4222 22.7949 16.0573 22.4275C16.7016 22.0548 17.7462 22.1908 18.269 21.6679C18.7919 21.1451 18.6559 20.1005 19.0286 19.4562C19.396 18.8211 20.3719 18.4193 20.5657 17.6939C20.7531 16.9929 20.1142 16.159 20.1142 15.3988C20.1142 14.6388 20.7531 13.8049 20.5657 13.1038ZM12 21.9716C8.37579 21.9716 5.42727 19.0231 5.42727 15.3988C5.42727 11.7746 8.37579 8.82613 12 8.82613C15.6242 8.82613 18.5727 11.7746 18.5727 15.3988C18.5727 19.0231 15.6242 21.9716 12 21.9716Z" fill="white"/>
<path d="M9.34196 5.47476C10.3289 5.21099 11.0706 5.85973 11.9995 5.87861C12.5296 5.86797 13.1507 5.47668 13.6892 5.41299L11.5241 0H5.69891L8.16193 6.15752C8.46994 5.87093 8.85093 5.60599 9.34196 5.47476Z" fill="white"/>
<path d="M15.838 6.15752L18.3011 0H13.0383L15.3495 5.77808C15.5314 5.89183 15.6927 6.02226 15.838 6.15752Z" fill="white"/>
<path d="M12 10.2322C9.15109 10.2322 6.83331 12.55 6.83331 15.3989C6.83331 18.2478 9.15109 20.5656 12 20.5656C14.8489 20.5656 17.1667 18.2478 17.1667 15.3989C17.1667 12.55 14.8489 10.2322 12 10.2322ZM14.1705 16.8663C14.1705 18.0631 13.1969 19.0368 12 19.0368C10.8032 19.0368 9.82954 18.0631 9.82954 16.8663H11.2356C11.2356 17.2878 11.5784 17.6307 12 17.6307C12.4215 17.6307 12.7645 17.2878 12.7645 16.8663C12.7645 16.4448 12.4216 16.1019 12 16.1019H11.2694V14.6959H12C12.4215 14.6959 12.7645 14.3529 12.7645 13.9315C12.7645 13.5099 12.4216 13.167 12 13.167C11.5785 13.167 11.2356 13.5099 11.2356 13.9315H9.82954C9.82954 12.7347 10.8032 11.761 12 11.761C13.1969 11.761 14.1705 12.7347 14.1705 13.9315C14.1705 14.4968 13.953 15.0122 13.5976 15.3989C13.953 15.7855 14.1705 16.3009 14.1705 16.8663Z" fill="white"/>
</g>
<defs>
<clipPath id="clip0_11_954">
<rect width="24" height="24" fill="white"/>
</clipPath>
</defs>
</svg>
