<svg width="24" height="24" viewBox="0 0 24 24" fill="none" xmlns="http://www.w3.org/2000/svg">
<path d="M16.7949 12.978L14.117 14.2845C12.6158 15.0126 11.4503 16.2937 10.8662 17.857L9.34806 21.8894C9.29444 22.0333 9.18156 22.1462 9.03766 22.2026C8.76111 22.3042 8.45071 22.166 8.3463 21.8894L6.83098 17.857C6.24403 16.2965 5.08143 15.0239 3.5802 14.2958L0.902276 12.9921C0.795045 12.9385 0.707568 12.851 0.653952 12.7438C0.524141 12.4757 0.637022 12.1569 0.902276 12.0271L3.5802 10.7234C5.08425 9.99531 6.24685 8.71421 6.83098 7.1509L8.34913 3.11851C8.40275 3.00842 8.49303 2.91813 8.60309 2.8645C8.87964 2.72906 9.21261 2.84197 9.35088 3.11851L10.869 7.14246C11.4503 8.70856 12.6158 9.98687 14.117 10.7177L16.7949 12.0186C16.9811 12.1089 17.0968 12.2979 17.0968 12.504C17.094 12.7071 16.9783 12.8905 16.7949 12.978Z" fill="white"/>
<path d="M23.2286 5.71803L22.2398 6.20048C21.7094 6.45768 21.2988 6.90819 21.0911 7.45932L20.532 8.94979C20.5001 9.03127 20.4362 9.09517 20.3547 9.12552C20.1981 9.18464 20.024 9.10637 19.9649 8.94979L19.4042 7.45932C19.1981 6.90819 18.7859 6.45768 18.2556 6.20048L17.2667 5.71803C17.206 5.68926 17.1565 5.63975 17.1277 5.57904C17.0542 5.42729 17.1165 5.24675 17.2667 5.17327L18.2556 4.69082C18.7859 4.43364 19.1981 3.98313 19.4042 3.43039L19.9649 1.9415C19.9953 1.87761 20.0464 1.82808 20.1087 1.79614C20.2652 1.71946 20.4537 1.78495 20.532 1.9415L21.0911 3.43039C21.2988 3.98313 21.7094 4.43364 22.2398 4.69082L23.2286 5.17327C23.2893 5.20203 23.3388 5.25154 23.3692 5.31227C23.4427 5.46243 23.3804 5.64455 23.2286 5.71803Z" fill="white"/>
</svg>
