<svg width="38" height="37" viewBox="0 0 38 37" fill="none" xmlns="http://www.w3.org/2000/svg">
<circle cx="18.6666" cy="18.5" r="18.5" fill="#3E95D3"/>
<g clip-path="url(#clip0_87_405)">
<path d="M31.3812 12.7953L30.6527 14.7762L22.7616 11.9339L19.3183 21.2962L27.6458 24.2957L26.8251 26.527L18.4976 23.5274L16.6495 28.5524L14.3443 27.7221L16.1924 22.6971L8.03085 19.7573L8.85147 17.5261L17.013 20.4658L20.4563 11.1035L12.8141 8.35082L13.5427 6.36993L31.3812 12.7953ZM13.353 9.8907L15.6995 10.7359L15.2461 14.8466C15.1777 15.373 15.2682 15.6812 15.5176 15.771L16.7012 16.1973L15.965 18.1989L13.8674 17.4434C13.0087 17.1341 12.6383 16.3947 12.7549 15.2247L13.3525 9.89054L13.353 9.8907ZM26.8928 14.7677L29.2393 15.6129L26.4502 20.0628C25.7732 21.0939 24.9361 21.4303 23.9391 21.0712L21.7586 20.2858L22.4947 18.2841L23.9276 18.8003C24.1489 18.88 24.4234 18.6878 24.7513 18.2234L26.8922 14.768L26.8928 14.7677Z" fill="white"/>
</g>
<defs>
<clipPath id="clip0_87_405">
<rect width="19.9759" height="19.817" fill="white" transform="matrix(0.940828 0.338883 -0.345178 0.938537 13.0233 6.18286)"/>
</clipPath>
</defs>
</svg>
