<svg width="24" height="24" viewBox="0 0 24 24" fill="none" xmlns="http://www.w3.org/2000/svg">
<path d="M16.5 8.48998L19.5 2.58748C19.5658 2.47347 19.6005 2.34414 19.6005 2.21248C19.6005 2.08083 19.5658 1.9515 19.5 1.83748C19.43 1.73109 19.334 1.64428 19.2212 1.58523C19.1083 1.52618 18.9823 1.49685 18.855 1.49998H14.895C14.7565 1.5004 14.6208 1.53917 14.503 1.61198C14.3852 1.68479 14.2898 1.7888 14.2275 1.91248L12 6.29248L9.74999 1.91248C9.68944 1.79213 9.59759 1.69032 9.48409 1.61773C9.37059 1.54514 9.23964 1.50447 9.10499 1.49998H5.14499C5.01555 1.49923 4.88812 1.53199 4.77509 1.59507C4.66207 1.65816 4.56729 1.74942 4.49999 1.85998C4.43416 1.974 4.39951 2.10333 4.39951 2.23498C4.39951 2.36664 4.43416 2.49597 4.49999 2.60998L7.49999 8.51248C7.56334 8.63477 7.65914 8.73725 7.77688 8.80869C7.89462 8.88013 8.02977 8.91777 8.16749 8.91748H9.86249C9.75373 9.24916 9.69805 9.59593 9.69749 9.94498C9.69007 10.0849 9.69007 10.2251 9.69749 10.365C8.32221 10.9033 7.17812 11.905 6.46284 13.1972C5.74757 14.4893 5.50603 15.9906 5.77994 17.4419C6.05385 18.8931 6.82601 20.2032 7.96305 21.1457C9.10009 22.0882 10.5306 22.604 12.0075 22.604C13.4844 22.604 14.9149 22.0882 16.0519 21.1457C17.189 20.2032 17.9611 18.8931 18.235 17.4419C18.5089 15.9906 18.2674 14.4893 17.5521 13.1972C16.8369 11.905 15.6928 10.9033 14.3175 10.365C14.3377 10.2208 14.3503 10.0755 14.355 9.92998C14.3716 9.58168 14.3362 9.23285 14.25 8.89498H15.8925C16.0199 8.88482 16.1425 8.84228 16.2488 8.7714C16.3552 8.70052 16.4416 8.60365 16.5 8.48998ZM15.81 15.24L13.8975 17.1075L14.3475 19.7475L12 18.4875L9.62999 19.7325L10.08 17.0925L8.16749 15.225L10.815 14.8425L12 12.435L13.185 14.8425L15.81 15.24ZM12.8475 9.93748C12.8475 9.93748 12.8475 9.93748 12.8475 9.98998C12.5671 9.94393 12.284 9.91637 12 9.90748C11.7264 9.90827 11.4532 9.92832 11.1825 9.96748C11.179 9.95269 11.179 9.93728 11.1825 9.92248C11.1726 9.55363 11.2861 9.19204 11.505 8.89498H12.555C12.7712 9.19299 12.882 9.5545 12.87 9.92248L12.8475 9.93748Z" fill="white"/>
</svg>
