<svg width="38" height="37" viewBox="0 0 38 37" fill="none" xmlns="http://www.w3.org/2000/svg">
<circle cx="18.6666" cy="18.5" r="18.5" fill="#D92929"/>
<g clip-path="url(#clip0_87_31)">
<path d="M9.57136 22.5089L11.817 23.3218L9.75037 25.3377C9.32717 25.7835 8.81942 25.8991 8.22583 25.6843L6.18291 24.9447L6.83797 23.1546L7.99093 23.572C8.22016 23.655 8.42398 23.5982 8.60284 23.402L9.57136 22.5089ZM14.0193 7.34942L21.6055 10.0958L16.8716 23.0324C16.5589 23.8868 15.8968 24.1307 14.8854 23.7645L8.81646 21.5675L14.0193 7.34942ZM14.561 12.1293L18.1011 13.4109L18.9274 11.153L15.3872 9.87139L14.561 12.1293ZM13.0425 16.2789L16.5827 17.5605L17.4089 15.3025L13.8688 14.0209L13.0425 16.2789ZM14.4681 21.5867C14.8457 21.7234 15.0942 21.6293 15.2134 21.3038L15.8982 19.4324L12.358 18.1508L11.4946 20.5103L14.4685 21.5869L14.4681 21.5867ZM12.7069 23.644L14.9727 24.4643L15.2148 25.6807C15.2668 25.9143 15.4677 26.0946 15.8188 26.2217L16.3649 26.4194L15.7396 28.1283L14.0401 27.513C13.568 27.3421 13.2621 26.947 13.1219 26.3284L12.7064 23.6443L12.7069 23.644ZM24.2711 10.3235L26.557 11.151L25.6571 12.4839L31.1191 14.4612L30.4046 16.4139L24.4773 14.2681L24.07 14.8808C23.4664 15.7375 22.6791 15.9896 21.7079 15.638L20.3929 15.1619L21.0777 13.2906L21.6644 13.503C21.88 13.581 22.1297 13.4411 22.4137 13.0832L24.2711 10.3235ZM26.9295 16.3309L29.2154 17.1584L23.8272 23.869L24.0732 28.9567C24.073 29.2484 24.1879 29.4361 24.4171 29.519L25.6308 29.9584L24.9758 31.7485L22.6899 30.921C22.0424 30.6866 21.7467 30.096 21.8036 29.149L21.6866 26.5267L20.3748 28.1711C19.6789 29.0708 18.9398 29.3793 18.1576 29.0962L15.9526 28.2979L16.6077 26.5078L17.6798 26.8959C17.9091 26.9789 18.1598 26.8774 18.4326 26.5924L21.5057 22.8903L21.2071 16.194L23.493 17.0215L23.652 20.2809L26.9301 16.3306L26.9295 16.3309Z" fill="white"/>
</g>
<defs>
<clipPath id="clip0_87_31">
<rect width="19.9875" height="19.9053" fill="white" transform="matrix(0.940281 0.340399 -0.343647 0.939099 13.0233 6.25159)"/>
</clipPath>
</defs>
</svg>
