<svg width="28" height="29" viewBox="0 0 28 29" fill="none" xmlns="http://www.w3.org/2000/svg">
<path d="M25.4074 13.4629H24.4607C23.9735 8.4862 20.0029 4.52528 15.037 4.0367V3.09258C15.037 2.51937 14.5727 2.05554 14 2.05554C13.4273 2.05554 12.9629 2.51937 12.9629 3.09258V4.03613C12.962 4.03619 12.961 4.03619 12.96 4.03625C7.99259 4.5237 4.02078 8.48518 3.53334 13.4629H2.59258C2.01988 13.4629 1.55554 13.9268 1.55554 14.5C1.55554 15.0732 2.01988 15.537 2.59258 15.537H3.53334C4.02078 20.5148 7.99259 24.4763 12.96 24.9637C12.961 24.9638 12.962 24.9638 12.9629 24.9638V25.9074C12.9629 26.4806 13.4273 26.9444 14 26.9444C14.5727 26.9444 15.037 26.4806 15.037 25.9074V24.9633C20.0029 24.4747 23.9735 20.5138 24.4607 15.537H25.4074C25.9801 15.537 26.4444 15.0732 26.4444 14.5C26.4444 13.9268 25.9801 13.4629 25.4074 13.4629ZM13.9971 20.8674C10.4919 20.8674 7.62965 18.0156 7.62965 14.5C7.62965 10.9844 10.4919 8.13256 13.9971 8.13256C17.5126 8.13256 20.3645 10.9844 20.3645 14.5C20.3645 18.0156 17.5126 20.8674 13.9971 20.8674Z" fill="white"/>
<path d="M15.3348 12.3845L13.3023 14.417L12.6592 13.7741C12.2549 13.3696 11.6015 13.3696 11.1971 13.7741C10.7926 14.1785 10.7926 14.8319 11.1971 15.2363L12.5763 16.6155C12.7734 16.8229 13.043 16.9163 13.3023 16.9163C13.5718 16.9163 13.8415 16.8229 14.0385 16.6155L16.8074 13.8467C17.2119 13.4422 17.2119 12.7889 16.8074 12.3845C16.403 11.98 15.7393 11.98 15.3348 12.3845Z" fill="white"/>
</svg>
