<svg width="24" height="24" viewBox="0 0 24 24" fill="none" xmlns="http://www.w3.org/2000/svg">
<path fill-rule="evenodd" clip-rule="evenodd" d="M12 2C9.23857 2 7 4.23858 7 7C7 9.76142 9.23857 12 12 12C14.7614 12 17 9.76142 17 7C17 4.23858 14.7614 2 12 2Z" fill="white"/>
<path fill-rule="evenodd" clip-rule="evenodd" d="M8.99992 13C7.33717 13 5.73815 13.7585 4.80107 14.9004C4.32547 15.48 3.99113 16.1971 3.96202 16.9919C3.93229 17.8036 4.22528 18.5958 4.8295 19.2871C6.30206 20.9716 8.65319 22 11.9999 22C15.3466 22 17.6978 20.9716 19.1703 19.2871C19.7746 18.5958 20.0675 17.8036 20.0378 16.9919C20.0087 16.1971 19.6744 15.48 19.1988 14.9004C18.2617 13.7585 16.6627 13 14.9999 13H8.99992Z" fill="white"/>
</svg>
