<svg width="38" height="37" viewBox="0 0 38 37" fill="none" xmlns="http://www.w3.org/2000/svg">
<circle cx="18.6666" cy="18.5" r="18.5" fill="#04898A"/>
<g clip-path="url(#clip0_87_501)">
<path d="M15.8578 7.24737L19.5037 8.54275L13.4467 24.7877C13.05 25.8517 12.3141 26.1929 11.2402 25.8114L9.76981 25.2889L10.4328 23.5108L11.3189 23.8257C11.6008 23.9258 11.7896 23.8477 11.885 23.5919L13.128 20.2582L11.0129 19.5067L9.65681 23.1437C9.1948 24.3828 8.34585 24.783 7.11052 24.3441L6.22438 24.0293L6.88737 22.2511L7.4716 22.4587C7.67302 22.5303 7.83175 22.4111 7.94721 22.1014L13.7631 6.50315L15.8582 7.24752L15.8578 7.24737ZM13.6271 12.4954L15.7422 13.2469L17.0078 9.8525L14.8927 9.10102L13.6271 12.4954ZM11.7287 17.5868L13.8438 18.3382L15.0266 15.166L12.9115 14.4145L11.7287 17.5868ZM21.115 9.11525L23.0487 9.80228L23.0986 12.36L23.9042 12.6462L24.9289 9.89808L26.8426 10.578L25.8181 13.3257L26.8051 13.6764L28.588 11.7699L30.5417 12.464L28.7384 14.3633L30.2492 14.9001L29.6163 16.5975L25.1847 15.023L24.695 16.3364C24.6831 16.4086 24.6755 16.4896 24.6727 16.58L29.5475 18.312L28.8846 20.0901L25.0572 18.7303L25.3808 20.3094C25.5099 20.6151 25.7429 20.827 26.0785 20.9462L28.3545 21.7549L27.7216 23.4523L24.559 22.3286C23.8202 22.0661 23.3887 21.5926 23.2641 20.9074L22.9119 18.2423L20.9401 20.1045C20.4786 20.5664 19.9933 20.7064 19.4831 20.5252L16.2805 19.3873L16.9134 17.6899L19.2299 18.5129C19.5118 18.6131 19.7691 18.5749 20.0026 18.3986L21.1294 17.3347L17.3425 15.9893L18.0055 14.2111L22.6385 15.8572C22.7191 15.764 22.7668 15.6968 22.7818 15.6566L23.2715 14.3432L18.9204 12.7973L19.5533 11.0999L21.1646 11.6724L21.1147 9.11467L21.115 9.11525ZM15.9808 20.9283L19.3448 22.1236L19.8879 21.218L21.7211 21.8693L21.198 22.782L26.5157 24.6714L24.8584 29.1165C24.522 30.0186 23.7899 30.2697 22.6619 29.869L19.9425 28.9028L20.5076 27.3873L22.5822 28.1244C22.8641 28.2246 23.0482 28.1604 23.1335 27.9314L23.9698 25.6886L20.3038 24.3861L18.7708 27.0905C18.3838 27.7613 17.9083 27.9967 17.3445 27.7964L13.7186 26.5081L14.3212 24.8919L16.7182 25.7435C17.0001 25.8436 17.2346 25.6827 17.4226 25.2614L18.3702 23.6991L15.3485 22.6255L15.9814 20.9281L15.9808 20.9283Z" fill="white"/>
</g>
<defs>
<clipPath id="clip0_87_501">
<rect width="19.9448" height="19.5797" fill="white" transform="matrix(0.942292 0.334793 -0.349361 0.936988 13.0649 5.68286)"/>
</clipPath>
</defs>
</svg>
